<svg width="80" height="17" viewBox="0 0 80 17" fill="none" xmlns="http://www.w3.org/2000/svg">
<path d="M6.516 9.616C6.516 9.232 6.372 8.92 6.084 8.68C5.808 8.44 5.454 8.224 5.022 8.032C4.602 7.828 4.14 7.624 3.636 7.42C3.144 7.204 2.682 6.946 2.25 6.646C1.83 6.334 1.476 5.95 1.188 5.494C0.912 5.038 0.774 4.456 0.774 3.748C0.774 3.136 0.876 2.608 1.08 2.164C1.284 1.708 1.572 1.33 1.944 1.03C2.328 0.729999 2.778 0.507999 3.294 0.364C3.81 0.219999 4.386 0.147999 5.022 0.147999C5.754 0.147999 6.444 0.213999 7.092 0.346C7.74 0.466 8.274 0.646 8.694 0.885999L7.92 2.956C7.656 2.788 7.26 2.638 6.732 2.506C6.204 2.362 5.634 2.29 5.022 2.29C4.446 2.29 4.002 2.404 3.69 2.632C3.39 2.86 3.24 3.166 3.24 3.55C3.24 3.91 3.378 4.21 3.654 4.45C3.942 4.69 4.296 4.912 4.716 5.116C5.148 5.32 5.61 5.53 6.102 5.746C6.606 5.962 7.068 6.226 7.488 6.538C7.92 6.838 8.274 7.216 8.55 7.672C8.838 8.116 8.982 8.674 8.982 9.346C8.982 10.018 8.868 10.6 8.64 11.092C8.424 11.572 8.112 11.974 7.704 12.298C7.308 12.622 6.822 12.862 6.246 13.018C5.682 13.174 5.058 13.252 4.374 13.252C3.474 13.252 2.682 13.168 1.998 13C1.314 12.832 0.81 12.664 0.486 12.496L1.278 10.39C1.41 10.462 1.578 10.54 1.782 10.624C1.998 10.708 2.238 10.786 2.502 10.858C2.766 10.93 3.042 10.99 3.33 11.038C3.63 11.086 3.936 11.11 4.248 11.11C4.98 11.11 5.538 10.99 5.922 10.75C6.318 10.498 6.516 10.12 6.516 9.616ZM10.7869 4H13.1269V13H10.7869V4ZM10.4449 1.462C10.4449 1.114 10.5709 0.819999 10.8229 0.579999C11.0869 0.327999 11.4469 0.202 11.9029 0.202C12.3589 0.202 12.7249 0.327999 13.0009 0.579999C13.2889 0.819999 13.4329 1.114 13.4329 1.462C13.4329 1.81 13.2889 2.104 13.0009 2.344C12.7249 2.572 12.3589 2.686 11.9029 2.686C11.4469 2.686 11.0869 2.572 10.8229 2.344C10.5709 2.104 10.4449 1.81 10.4449 1.462ZM23.0189 13C23.0189 14.308 22.6649 15.268 21.9569 15.88C21.2489 16.504 20.2589 16.816 18.9869 16.816C18.1229 16.816 17.4389 16.756 16.9349 16.636C16.4429 16.516 16.0709 16.39 15.8189 16.258L16.3049 14.404C16.5809 14.512 16.8989 14.62 17.2589 14.728C17.6309 14.836 18.0869 14.89 18.6269 14.89C19.4429 14.89 19.9949 14.71 20.2829 14.35C20.5829 14.002 20.7329 13.51 20.7329 12.874V12.298H20.6609C20.2409 12.862 19.4969 13.144 18.4289 13.144C17.2649 13.144 16.3949 12.784 15.8189 12.064C15.2549 11.344 14.9729 10.216 14.9729 8.68C14.9729 7.072 15.3569 5.854 16.1249 5.026C16.8929 4.198 18.0089 3.784 19.4729 3.784C20.2409 3.784 20.9249 3.838 21.5249 3.946C22.1369 4.054 22.6349 4.18 23.0189 4.324V13ZM19.0589 11.272C19.5149 11.272 19.8629 11.17 20.1029 10.966C20.3549 10.762 20.5469 10.456 20.6789 10.048V5.998C20.3069 5.842 19.8449 5.764 19.2929 5.764C18.6929 5.764 18.2249 5.992 17.8889 6.448C17.5529 6.892 17.3849 7.606 17.3849 8.59C17.3849 9.466 17.5289 10.132 17.8169 10.588C18.1049 11.044 18.5189 11.272 19.0589 11.272ZM30.5633 13V7.888C30.5633 7.156 30.4553 6.628 30.2393 6.304C30.0353 5.98 29.6813 5.818 29.1773 5.818C28.7333 5.818 28.3553 5.95 28.0433 6.214C27.7433 6.466 27.5273 6.784 27.3953 7.168V13H25.0553V4H26.9093L27.1793 5.188H27.2513C27.5273 4.804 27.8933 4.468 28.3493 4.18C28.8053 3.892 29.3933 3.748 30.1133 3.748C30.5573 3.748 30.9533 3.808 31.3013 3.928C31.6493 4.048 31.9433 4.246 32.1833 4.522C32.4233 4.798 32.6033 5.176 32.7233 5.656C32.8433 6.124 32.9033 6.706 32.9033 7.402V13H30.5633ZM34.8099 4.522C35.2899 4.306 35.8599 4.138 36.5199 4.018C37.1799 3.886 37.8699 3.82 38.5899 3.82C39.2139 3.82 39.7359 3.898 40.1559 4.054C40.5759 4.198 40.9059 4.408 41.1459 4.684C41.3979 4.96 41.5719 5.29 41.6679 5.674C41.7759 6.058 41.8299 6.49 41.8299 6.97C41.8299 7.498 41.8119 8.032 41.7759 8.572C41.7399 9.1 41.7159 9.622 41.7039 10.138C41.7039 10.654 41.7219 11.158 41.7579 11.65C41.7939 12.13 41.8839 12.586 42.0279 13.018H40.1199L39.7419 11.776H39.6519C39.4119 12.148 39.0759 12.472 38.6439 12.748C38.2239 13.012 37.6779 13.144 37.0059 13.144C36.5859 13.144 36.2079 13.084 35.8719 12.964C35.5359 12.832 35.2479 12.652 35.0079 12.424C34.7679 12.184 34.5819 11.908 34.4499 11.596C34.3179 11.272 34.2519 10.912 34.2519 10.516C34.2519 9.964 34.3719 9.502 34.6119 9.13C34.8639 8.746 35.2179 8.44 35.6739 8.212C36.1419 7.972 36.6939 7.81 37.3299 7.726C37.9779 7.63 38.6979 7.6 39.4899 7.636C39.5739 6.964 39.5259 6.484 39.3459 6.196C39.1659 5.896 38.7639 5.746 38.1399 5.746C37.6719 5.746 37.1739 5.794 36.6459 5.89C36.1299 5.986 35.7039 6.112 35.3679 6.268L34.8099 4.522ZM37.7799 11.218C38.2479 11.218 38.6199 11.116 38.8959 10.912C39.1719 10.696 39.3759 10.468 39.5079 10.228V9.058C39.1359 9.022 38.7759 9.016 38.4279 9.04C38.0919 9.064 37.7919 9.118 37.5279 9.202C37.2639 9.286 37.0539 9.406 36.8979 9.562C36.7419 9.718 36.6639 9.916 36.6639 10.156C36.6639 10.492 36.7599 10.756 36.9519 10.948C37.1559 11.128 37.4319 11.218 37.7799 11.218ZM46.2056 9.976C46.2056 10.396 46.2596 10.702 46.3676 10.894C46.4756 11.086 46.6496 11.182 46.8896 11.182C47.0336 11.182 47.1716 11.17 47.3036 11.146C47.4476 11.122 47.6216 11.068 47.8256 10.984L48.0776 12.82C47.8856 12.916 47.5916 13.012 47.1956 13.108C46.7996 13.204 46.3916 13.252 45.9716 13.252C45.2876 13.252 44.7656 13.096 44.4056 12.784C44.0456 12.46 43.8656 11.932 43.8656 11.2V0.399999H46.2056V9.976Z" fill="#111827"/>
<path d="M56.2126 7.726H51.6046V13H49.1386V0.399999H51.6046V5.53H56.2126V0.399999H58.6786V13H56.2126V7.726ZM61.0252 4H63.3652V13H61.0252V4ZM60.6832 1.462C60.6832 1.114 60.8092 0.819999 61.0612 0.579999C61.3252 0.327999 61.6852 0.202 62.1412 0.202C62.5972 0.202 62.9632 0.327999 63.2392 0.579999C63.5272 0.819999 63.6712 1.114 63.6712 1.462C63.6712 1.81 63.5272 2.104 63.2392 2.344C62.9632 2.572 62.5972 2.686 62.1412 2.686C61.6852 2.686 61.3252 2.572 61.0612 2.344C60.8092 2.104 60.6832 1.81 60.6832 1.462ZM70.6112 6.196C70.2392 6.064 69.9032 5.998 69.6032 5.998C69.1832 5.998 68.8292 6.112 68.5412 6.34C68.2652 6.556 68.0792 6.838 67.9832 7.186V13H65.6432V4H67.4612L67.7312 5.188H67.8032C68.0072 4.744 68.2832 4.402 68.6312 4.162C68.9792 3.922 69.3872 3.802 69.8552 3.802C70.1672 3.802 70.5212 3.868 70.9172 4L70.6112 6.196ZM79.1537 12.226C78.7937 12.514 78.3017 12.76 77.6777 12.964C77.0657 13.156 76.4117 13.252 75.7157 13.252C74.2637 13.252 73.2017 12.832 72.5297 11.992C71.8577 11.14 71.5217 9.976 71.5217 8.5C71.5217 6.916 71.8997 5.728 72.6557 4.936C73.4117 4.144 74.4737 3.748 75.8417 3.748C76.2977 3.748 76.7417 3.808 77.1737 3.928C77.6057 4.048 77.9897 4.246 78.3257 4.522C78.6617 4.798 78.9317 5.17 79.1357 5.638C79.3397 6.106 79.4417 6.688 79.4417 7.384C79.4417 7.636 79.4237 7.906 79.3877 8.194C79.3637 8.482 79.3217 8.782 79.2617 9.094H73.8617C73.8977 9.85 74.0897 10.42 74.4377 10.804C74.7977 11.188 75.3737 11.38 76.1657 11.38C76.6577 11.38 77.0957 11.308 77.4797 11.164C77.8757 11.008 78.1757 10.852 78.3797 10.696L79.1537 12.226ZM75.8057 5.62C75.1937 5.62 74.7377 5.806 74.4377 6.178C74.1497 6.538 73.9757 7.024 73.9157 7.636H77.2637C77.3117 6.988 77.2097 6.49 76.9577 6.142C76.7177 5.794 76.3337 5.62 75.8057 5.62Z" fill="#478ACC"/>
</svg>
