<svg xmlns="http://www.w3.org/2000/svg" width="351" height="92" fill="none" viewBox="0 0 351 92"><g opacity=".7"><g filter="url(#a)"><path fill="#66b599" d="M50.934 56.457s-5.468 2.349-7.379 2.855c-6.951 1.838-8.926.29-8.926.29l.954-6.667s3.873.096 7.488-1.11c1.797-.602 7.084-2.707 7.084-2.707z"/></g><path fill="#66b599" d="M311.481 66.754s-3.558-4.77-4.497-6.51c-3.407-6.331-2.362-8.612-2.362-8.612l6.706-.627s.808 3.789 2.826 7.022c1.003 1.609 4.283 6.26 4.283 6.26z"/><path fill="#f29900" d="M82.962 70.103s-2.274.825-5.444-3.277c-2.188-2.832-5.356-3.296-5.356-3.296l4.117-4.597s3.05-.322 5.257 3.11c1.998 3.106 5.518 3.684 5.518 3.684z"/><g filter="url(#b)"><path fill="#f29900" d="M21.006 8.387s-.041 2.42-5.005 3.912c-3.428 1.03-4.994 3.824-4.994 3.824l-2.821-5.49s.79-2.962 4.784-3.797C16.586 6.081 18.384 3 18.384 3z"/></g><path fill="#f29900" d="M272.336 70.2s-.411-1.23 1.831-2.869c1.547-1.132 1.84-2.823 1.84-2.823l2.403 2.27s.132 1.637-1.737 2.772c-1.693 1.027-2.051 2.904-2.051 2.904z"/><g filter="url(#c)"><path fill="#66b599" d="m345.595 7.975 1.594 8.09s-2.626 2.434-7.843 3.498c-4.943 1.008-8.562-.152-8.562-.152l-1.595-8.09s4.595.127 8.569-.684c2.953-.603 7.837-2.662 7.837-2.662"/></g><path fill="#dbe2f9" d="m306.113 16.789-6.356.938s.221-3.047.09-5.954c-.167-3.687.904-6.717.904-6.717l6.574-.41s-1.675 3.52-1.276 6.376c.477 3.415.064 5.767.064 5.767"/><path fill="#e36272" d="m12.18 57.555-4.302 4.617s-1.7-2.474-3.583-4.625C1.907 54.819.87 51.837.87 51.837l4.794-4.347s.875 3.73 2.932 5.677c2.46 2.329 3.585 4.388 3.585 4.388M334.932 48.502l-5.01-2.456s-.208-2.434 1.402-5.72c1.527-3.114 3.662-4.613 3.662-4.613l5.011 2.456s-1.99 2.456-3.217 4.96c-.911 1.86-1.848 5.373-1.848 5.373"/><path fill="#f29900" d="M316.898 36.113a1.618 1.618 0 1 1-3.237 0 1.618 1.618 0 0 1 3.237 0M4.856 80.116a1.083 1.083 0 1 1-2.166-.001 1.083 1.083 0 0 1 2.166.001M22.624 40.484a1.618 1.618 0 1 1-3.237-.001 1.618 1.618 0 0 1 3.237 0M146.624 9.484a1.618 1.618 0 1 1-3.236-.001 1.618 1.618 0 0 1 3.236 0"/><path fill="#66b599" d="M343.342 62.293a1.548 1.548 0 1 1-3.096 0 1.548 1.548 0 0 1 3.096 0M165.342 15.293a1.548 1.548 0 1 1-3.096 0 1.548 1.548 0 0 1 3.096 0"/><path fill="#dbe2f9" d="M55.893 25.566a.908.908 0 1 1-1.815 0 .908.908 0 0 1 1.815 0"/><g filter="url(#d)"><path fill="#e36272" d="M326.574 87.273a1.627 1.627 0 1 1-3.253.001 1.627 1.627 0 0 1 3.253 0"/></g></g><defs><filter id="a" width="22.304" height="17.093" x="31.629" y="46.118" color-interpolation-filters="sRGB" filterUnits="userSpaceOnUse"><feFlood flood-opacity="0" result="BackgroundImageFix"/><feBlend in="SourceGraphic" in2="BackgroundImageFix" result="shape"/><feGaussianBlur result="effect1_foregroundBlur_12681_22795" stdDeviation="1.5"/></filter><filter id="b" width="18.82" height="19.123" x="5.186" y="0" color-interpolation-filters="sRGB" filterUnits="userSpaceOnUse"><feFlood flood-opacity="0" result="BackgroundImageFix"/><feBlend in="SourceGraphic" in2="BackgroundImageFix" result="shape"/><feGaussianBlur result="effect1_foregroundBlur_12681_22795" stdDeviation="1.5"/></filter><filter id="c" width="24" height="18" x="326.189" y="4.975" color-interpolation-filters="sRGB" filterUnits="userSpaceOnUse"><feFlood flood-opacity="0" result="BackgroundImageFix"/><feBlend in="SourceGraphic" in2="BackgroundImageFix" result="shape"/><feGaussianBlur result="effect1_foregroundBlur_12681_22795" stdDeviation="1.5"/></filter><filter id="d" width="9.253" height="9.254" x="320.321" y="82.647" color-interpolation-filters="sRGB" filterUnits="userSpaceOnUse"><feFlood flood-opacity="0" result="BackgroundImageFix"/><feBlend in="SourceGraphic" in2="BackgroundImageFix" result="shape"/><feGaussianBlur result="effect1_foregroundBlur_12681_22795" stdDeviation="1.5"/></filter></defs></svg>