<svg xmlns="http://www.w3.org/2000/svg" width="14" height="14" fill="none" viewBox="0 0 14 14"><path fill="#fe7a01" d="M12.029 2.152C11.919 2.038 11.768 1.973 11.609 1.972 11.607 1.972 11.606 1.972 11.605 1.972 11.448 1.972 11.297 2.034 11.186 2.145L11.126 2.205C10.898 2.433 10.895 2.802 11.12 3.034 12.16 4.109 12.733 5.525 12.733 7.02 12.733 8.516 12.16 9.931 11.12 11.006 10.895 11.238 10.898 11.608 11.127 11.836L11.187 11.896C11.298 12.007 11.448 12.068 11.605 12.068 11.606 12.068 11.608 12.068 11.61 12.068 11.768 12.067 11.919 12.002 12.029 11.889 13.3 10.577 14 8.848 14 7.02 14 5.193 13.3 3.464 12.029 2.152ZM1.267 7.02C1.267 5.525 1.84 4.109 2.88 3.034 3.105 2.802 3.102 2.433 2.873 2.204L2.814 2.145C2.703 2.034 2.552 1.972 2.396 1.972 2.394 1.972 2.392 1.972 2.391 1.972 2.232 1.973 2.081 2.038 1.971 2.152.7 3.464 0 5.193 0 7.02 0 8.848.7 10.577 1.971 11.888 2.081 12.002 2.233 12.067 2.391 12.068 2.393 12.068 2.394 12.068 2.396 12.068 2.553 12.068 2.703 12.006 2.814 11.895L2.874 11.835C3.102 11.607 3.105 11.238 2.881 11.006 1.84 9.931 1.267 8.516 1.267 7.02Z"/><path fill="#fe7a01" d="M10.078 4.422C9.968 4.308 9.816 4.243 9.657 4.242 9.656 4.242 9.654 4.242 9.653 4.242 9.496 4.242 9.345 4.305 9.234 4.417L9.205 4.446C8.978 4.674 8.975 5.043 9.199 5.274 9.655 5.745 9.906 6.365 9.906 7.02 9.906 7.675 9.655 8.296 9.199 8.766 8.975 8.998 8.978 9.366 9.205 9.594L9.234 9.624C9.344 9.735 9.496 9.798 9.653 9.798 9.654 9.798 9.656 9.798 9.657 9.798 9.816 9.797 9.968 9.732 10.078 9.618 10.757 8.918 11.13 7.996 11.13 7.02 11.13 6.045 10.757 5.122 10.078 4.422ZM4.794 4.445 4.765 4.416C4.654 4.305 4.503 4.242 4.346 4.242 4.345 4.242 4.343 4.242 4.342 4.242 4.183 4.243 4.032 4.308 3.922 4.422 3.243 5.122 2.87 6.045 2.87 7.02 2.87 7.996 3.243 8.919 3.922 9.619 4.032 9.732 4.183 9.797 4.342 9.798 4.344 9.798 4.345 9.798 4.346 9.798 4.503 9.798 4.654 9.736 4.765 9.625L4.794 9.596C5.022 9.368 5.025 8.998 4.801 8.766 4.345 8.295 4.094 7.676 4.094 7.02 4.094 6.365 4.345 5.745 4.801 5.274 5.025 5.042 5.022 4.673 4.794 4.445ZM7 8.28C7.708 8.28 8.282 7.706 8.282 6.998 8.282 6.29 7.708 5.716 7 5.716 6.292 5.716 5.718 6.29 5.718 6.998 5.718 7.706 6.292 8.28 7 8.28Z"/></svg>