<svg xmlns="http://www.w3.org/2000/svg" width="88" height="80" fill="none" viewBox="0 0 88 80"><path fill="#fff" d="M67.016 35.364 67.257 34.06C67.442 33.046 67.825 32.108 68.404 31.246 68.984 30.385 69.732 29.693 70.65 29.17 71.568 28.647 72.626 28.385 73.825 28.385 75.065 28.385 76.067 28.647 76.832 29.17 77.596 29.685 78.124 30.373 78.413 31.234 78.711 32.088 78.76 33.029 78.558 34.06L78.317 35.364C78.132 36.37 77.749 37.308 77.17 38.177 76.598 39.038 75.85 39.73 74.924 40.254 73.998 40.777 72.928 41.038 71.712 41.038 70.497 41.038 69.507 40.777 68.742 40.254 67.986 39.73 67.458 39.038 67.161 38.177 66.871 37.308 66.822 36.37 67.016 35.364ZM71.109 34.06 70.867 35.364C70.771 35.871 70.811 36.366 70.988 36.849 71.173 37.324 71.604 37.561 72.28 37.561 72.988 37.561 73.499 37.328 73.813 36.861 74.127 36.394 74.332 35.895 74.429 35.364L74.671 34.06C74.767 33.52 74.739 33.013 74.586 32.538 74.433 32.055 73.99 31.814 73.258 31.814 72.582 31.814 72.079 32.055 71.749 32.538 71.419 33.013 71.205 33.52 71.109 34.06ZM56.56 21.213 56.753 19.909C56.906 18.871 57.276 17.925 57.864 17.072 58.451 16.218 59.212 15.534 60.146 15.019 61.079 14.496 62.142 14.234 63.333 14.234 64.565 14.234 65.555 14.496 66.303 15.019 67.052 15.534 67.571 16.218 67.861 17.072 68.151 17.925 68.219 18.871 68.066 19.909L67.873 21.213C67.72 22.243 67.354 23.185 66.774 24.038 66.195 24.892 65.434 25.572 64.492 26.079 63.559 26.586 62.484 26.84 61.269 26.84 60.045 26.84 59.059 26.586 58.31 26.079 57.57 25.564 57.055 24.88 56.765 24.026 56.483 23.165 56.415 22.227 56.56 21.213ZM60.641 19.909 60.447 21.213C60.367 21.752 60.411 22.255 60.58 22.722 60.749 23.181 61.168 23.411 61.836 23.411 62.536 23.411 63.047 23.181 63.369 22.722 63.691 22.255 63.893 21.752 63.973 21.213L64.166 19.909C64.247 19.37 64.215 18.863 64.07 18.388 63.925 17.905 63.49 17.663 62.766 17.663 62.081 17.663 61.574 17.909 61.244 18.4 60.922 18.891 60.721 19.394 60.641 19.909ZM55.195 40 76.3 15.273H79.778L58.673 40H55.195ZM38.93 40.604C36.765 40.604 34.982 40.093 33.582 39.07 32.181 38.04 31.219 36.563 30.696 34.639 30.173 32.707 30.145 30.385 30.612 27.673 31.07 24.96 31.879 22.658 33.038 20.766 34.197 18.867 35.638 17.422 37.361 16.432 39.083 15.434 41.019 14.935 43.168 14.935 45.326 14.935 47.1 15.434 48.493 16.432 49.893 17.422 50.859 18.867 51.391 20.766 51.922 22.658 51.962 24.96 51.511 27.673 51.061 30.385 50.252 32.707 49.085 34.639 47.925 36.571 46.481 38.048 44.75 39.07 43.027 40.093 41.088 40.604 38.93 40.604ZM39.751 35.714C41.039 35.714 42.182 35.054 43.18 33.734 44.179 32.414 44.907 30.393 45.366 27.673 45.672 25.894 45.74 24.421 45.571 23.254 45.41 22.086 45.052 21.217 44.496 20.646 43.949 20.074 43.249 19.788 42.396 19.788 41.108 19.788 39.957 20.436 38.942 21.732 37.928 23.02 37.196 25 36.745 27.673 36.447 29.492 36.383 30.997 36.552 32.188 36.721 33.371 37.083 34.257 37.639 34.844 38.194 35.424 38.898 35.714 39.751 35.714ZM16.541 40.338C15.149 40.338 13.857 40.109 12.665 39.65 11.474 39.191 10.464 38.467 9.635 37.477 8.814 36.478 8.25 35.178 7.944 33.577 7.647 31.975 7.691 30.035 8.077 27.757 8.415 25.745 8.955 23.95 9.695 22.372 10.436 20.786 11.341 19.442 12.412 18.339 13.482 17.229 14.69 16.383 16.034 15.804 17.378 15.224 18.823 14.935 20.369 14.935 22.115 14.935 23.608 15.265 24.848 15.925 26.088 16.585 27.025 17.478 27.661 18.605 28.305 19.732 28.591 20.992 28.518 22.384H22.723C22.715 21.587 22.457 20.996 21.95 20.609 21.443 20.223 20.795 20.03 20.006 20.03 18.453 20.03 17.161 20.706 16.131 22.058 15.1 23.41 14.38 25.201 13.969 27.431L14.163 27.129C14.629 26.389 15.213 25.765 15.913 25.258 16.614 24.751 17.382 24.364 18.219 24.099 19.065 23.833 19.934 23.7 20.827 23.7 22.349 23.7 23.637 24.058 24.691 24.775 25.745 25.483 26.498 26.457 26.949 27.697 27.408 28.936 27.504 30.341 27.239 31.91 26.965 33.593 26.329 35.066 25.331 36.33 24.341 37.593 23.089 38.579 21.576 39.288 20.063 39.988 18.384 40.338 16.541 40.338ZM16.758 35.75C17.539 35.75 18.268 35.565 18.944 35.195 19.628 34.824 20.199 34.317 20.658 33.673 21.125 33.029 21.415 32.301 21.528 31.488 21.64 30.788 21.588 30.168 21.371 29.629 21.161 29.081 20.815 28.651 20.332 28.337 19.857 28.023 19.27 27.866 18.57 27.866 17.99 27.866 17.435 27.974 16.903 28.192 16.372 28.409 15.885 28.711 15.442 29.097 15.008 29.484 14.646 29.934 14.356 30.45 14.066 30.965 13.873 31.52 13.776 32.116 13.672 32.832 13.728 33.464 13.945 34.011 14.163 34.551 14.513 34.977 14.996 35.291 15.479 35.597 16.066 35.75 16.758 35.75ZM42.008 68 45.147 49.091H58.055L57.427 52.803H49.09L48.462 56.68H55.977L55.349 60.401H47.834L46.578 68H42.008ZM27.301 68 30.44 49.091H43.348L42.72 52.803H34.383L33.755 56.68H41.27L40.642 60.401H33.127L31.871 68H27.301ZM26.654 58.841C26.31 60.878 25.632 62.599 24.623 64.002 23.62 65.4 22.398 66.458 20.957 67.178 19.523 67.899 17.981 68.259 16.332 68.259 14.59 68.259 13.082 67.871 11.808 67.095 10.533 66.32 9.607 65.19 9.028 63.707 8.456 62.223 8.345 60.423 8.696 58.306 9.028 56.268 9.696 54.545 10.7 53.135 11.709 51.726 12.937 50.658 14.384 49.931 15.836 49.199 17.394 48.833 19.056 48.833 20.785 48.833 22.284 49.223 23.552 50.005 24.826 50.787 25.749 51.923 26.322 53.412 26.894 54.902 27.005 56.711 26.654 58.841ZM22.084 58.306C22.275 57.118 22.275 56.117 22.084 55.305 21.899 54.492 21.536 53.88 20.994 53.468 20.453 53.049 19.748 52.84 18.88 52.84 17.92 52.84 17.052 53.077 16.276 53.551 15.507 54.018 14.864 54.702 14.347 55.6 13.83 56.493 13.47 57.573 13.266 58.841 13.057 60.041 13.051 61.042 13.248 61.842 13.451 62.642 13.83 63.245 14.384 63.651 14.938 64.052 15.642 64.252 16.498 64.252 17.452 64.252 18.311 64.021 19.074 63.559 19.837 63.097 20.474 62.423 20.985 61.537 21.502 60.651 21.868 59.574 22.084 58.306Z"/></svg>