<svg xmlns="http://www.w3.org/2000/svg" width="23" height="30" fill="none" viewBox="0 0 23 30"><path fill="url(#paint0_radial_11999_317747)" d="M7.7783 19.0915C7.70705 19.8515 7.65705 21.1965 8.1058 21.769C8.1058 21.769 7.89455 20.2915 9.7883 18.4377C10.5508 17.6915 10.727 16.6765 10.4608 15.9152C10.3095 15.484 10.0333 15.1277 9.7933 14.879C9.6533 14.7327 9.7608 14.4915 9.96455 14.5002C11.197 14.5552 13.1945 14.8977 14.0433 17.0277C14.4158 17.9627 14.4433 18.929 14.2658 19.9115C14.1533 20.539 13.7533 21.934 14.6658 22.1052C15.317 22.2277 15.632 21.7102 15.7733 21.3377C15.832 21.1827 16.0358 21.144 16.1458 21.2677C17.2458 22.519 17.3395 23.9927 17.112 25.2615C16.672 27.714 14.1883 29.499 11.7208 29.499C8.6383 29.499 6.18455 27.7352 5.5483 24.5427C5.29205 23.254 5.42205 20.704 7.40955 18.904C7.55705 18.769 7.7983 18.889 7.7783 19.0915Z"/><path fill="url(#paint1_radial_11999_317747)" d="M12.8471 23.6776C11.7108 22.2151 12.2196 20.5464 12.4983 19.8814C12.5358 19.7939 12.4358 19.7114 12.3571 19.7651C11.8683 20.0976 10.8671 20.8801 10.4008 21.9814C9.76959 23.4701 9.81459 24.1989 10.1883 25.0889C10.4133 25.6251 10.1521 25.7389 10.0208 25.7589C9.89334 25.7789 9.77584 25.6939 9.68209 25.6051C9.41244 25.3462 9.22025 25.0172 9.12709 24.6551C9.10709 24.5776 9.00584 24.5564 8.95959 24.6201C8.60959 25.1039 8.42834 25.8801 8.41959 26.4289C8.39209 28.1251 9.79334 29.5001 11.4883 29.5001C13.6246 29.5001 15.1808 27.1376 13.9533 25.1626C13.5971 24.5876 13.2621 24.2114 12.8471 23.6776Z"/><path fill="url(#paint2_radial_11999_317747)" fill-opacity="0.25" d="M4.55156 9.18359C4.41224 10.7037 4.31446 13.3939 5.19198 14.539C5.19198 14.539 4.77888 11.5837 8.48204 7.876C9.97308 6.3834 10.3177 4.35326 9.79709 2.83066C9.50133 1.9681 8.96113 1.25555 8.49182 0.758015C8.21805 0.465495 8.42827 -0.017038 8.82669 0.000463173C11.2368 0.110471 15.1428 0.795517 16.8025 5.05581C17.5309 6.92593 17.5847 8.85857 17.2376 10.8237C17.0176 12.0788 16.2354 14.869 18.0198 15.2115C19.2933 15.4565 19.9093 14.4214 20.1855 13.6764C20.3004 13.3664 20.6988 13.2889 20.9139 13.5364C23.0649 16.0391 23.2482 18.9868 22.8034 21.5244C21.943 26.4298 17.0861 30 12.261 30C6.23326 30 1.43504 26.4723 0.190881 20.0868C-0.310206 17.5092 -0.0559952 12.4088 3.83049 8.80856C4.11892 8.53854 4.59067 8.77856 4.55156 9.18359Z"/><defs><radialGradient id="paint0_radial_11999_317747" cx="0" cy="0" r="1" gradientTransform="rotate(180.249 5.587 14.757)scale(8.82346 14.4775)" gradientUnits="userSpaceOnUse"><stop offset="0.314" stop-color="#ff9800"/><stop offset="0.662" stop-color="#ff6d00"/><stop offset="0.972" stop-color="#f44336"/></radialGradient><radialGradient id="paint1_radial_11999_317747" cx="0" cy="0" r="1" gradientTransform="rotate(90.579 -4.471 16.123)scale(9.23205 6.94781)" gradientUnits="userSpaceOnUse"><stop offset="0.214" stop-color="#fff176"/><stop offset="0.328" stop-color="#fff27d"/><stop offset="0.487" stop-color="#fff48f"/><stop offset="0.672" stop-color="#fff7ad"/><stop offset="0.793" stop-color="#fff9c4"/><stop offset="0.822" stop-color="#fff8bd" stop-opacity="0.804"/><stop offset="0.863" stop-color="#fff6ab" stop-opacity="0.529"/><stop offset="0.91" stop-color="#fff38d" stop-opacity="0.209"/><stop offset="0.941" stop-color="#fff176" stop-opacity="0"/></radialGradient><radialGradient id="paint2_radial_11999_317747" cx="0" cy="0" r="1" gradientTransform="rotate(180.254 5.567 15.027)scale(17.2539 28.957)" gradientUnits="userSpaceOnUse"><stop offset="0.314" stop-color="#ff9800"/><stop offset="0.662" stop-color="#ff6d00"/><stop offset="0.972" stop-color="#f44336"/></radialGradient></defs></svg>