<svg xmlns="http://www.w3.org/2000/svg" width="14" height="15" fill="none" viewBox="0 0 14 15"><path fill="#fe7a01" d="M11.9108 5.04948L12.1316 4.652C12.8235 3.45958 12.6174 1.94328 11.6458 0.956947C11.0717 0.382814 10.3062 0.0589447 9.48178 0.0589447C8.65738 0.0589447 7.9066 0.397536 7.33246 0.971668C6.93499 1.36914 6.67 1.86967 6.53751 2.38492C3.53436 2.63518 1.17894 5.15253 1.17894 8.21457C1.17894 11.4385 3.79934 14.0589 7.00859 14.0589C10.2178 14.0589 12.8382 11.4385 12.8382 8.21457C12.8382 7.05158 12.4997 5.9622 11.9108 5.04948ZM8.06853 1.70774C8.45129 1.32498 8.95181 1.11888 9.4965 1.11888C10.0412 1.11888 10.5417 1.32498 10.9245 1.70774C11.5722 2.35547 11.7047 3.35653 11.2483 4.15148L9.4965 7.16935L7.74466 4.13676C7.2883 3.35653 7.42079 2.35547 8.06853 1.70774ZM6.47862 3.62151C6.53751 3.97482 6.65528 4.32814 6.84666 4.66673L7.4944 5.78555H5.34508C5.61007 4.74033 6.03698 3.97482 6.47862 3.62151ZM2.20943 8.21457C2.20943 7.72877 2.28304 7.25768 2.41553 6.81604H4.09377C4.03488 7.25768 4.02016 7.72877 4.02016 8.21457C4.02016 8.70037 4.0496 9.17146 4.09377 9.6131H2.41553C2.28304 9.17146 2.20943 8.70037 2.20943 8.21457ZM2.87189 10.6436H4.2557C4.41764 11.3797 4.65318 12.0274 4.96233 12.5574C4.09377 12.1452 3.3577 11.4827 2.87189 10.6436ZM4.27042 5.77083H2.88662C3.37242 4.94643 4.10849 4.26925 4.97705 3.85705C4.6679 4.38702 4.43236 5.03476 4.27042 5.77083ZM7.00859 13.0285C6.3903 13.0285 5.71312 12.101 5.34508 10.6583H8.68683C8.30407 12.0863 7.62689 13.0285 7.00859 13.0285ZM5.13898 9.6131C5.0801 9.17146 5.05065 8.70037 5.05065 8.21457C5.05065 7.72877 5.0801 7.25768 5.13898 6.81604H8.08325L8.96653 8.34706C8.96653 8.7887 8.93709 9.21562 8.8782 9.6131H5.13898ZM9.05486 12.5574C9.34929 12.0274 9.58483 11.3797 9.76149 10.6436H11.1453C10.6595 11.4827 9.92342 12.1452 9.05486 12.5574ZM9.92342 9.6131C9.96758 9.21562 9.99703 8.7887 9.99703 8.36178L10.8803 6.81604H11.5869C11.7194 7.25768 11.793 7.72877 11.793 8.21457C11.793 8.70037 11.7194 9.17146 11.5869 9.6131H9.92342Z"/><circle cx="9.50833" cy="3.26666" r="0.758333" fill="#fe7a01"/></svg>