<svg xmlns="http://www.w3.org/2000/svg" width="14" height="14" fill="none" viewBox="0 0 14 14"><path fill="#fe7a01" d="M7 1.76842C3.13895 1.76842 0 4.90736 0 8.76842C0 9.90315 0.28 11.0232 0.795789 12.0253C0.898947 12.2316 1.10526 12.3495 1.32632 12.3495C1.41474 12.3495 1.51789 12.3347 1.60632 12.2758C1.90105 12.1284 2.00421 11.76 1.85684 11.4653C1.42947 10.64 1.19368 9.69684 1.19368 8.76842C1.19368 5.57052 3.8021 2.9621 7 2.9621C10.1979 2.9621 12.8063 5.57052 12.8063 8.76842C12.8063 9.71158 12.5705 10.6547 12.1432 11.4653C11.9958 11.76 12.0989 12.1137 12.3937 12.2758C12.6884 12.4232 13.0421 12.32 13.2042 12.0253C13.7347 11.0379 14 9.90315 14 8.76842C14 4.90736 10.8611 1.76842 7 1.76842Z"/><path fill="#fe7a01" d="M9.844 5.276 6.234 7.516C5.792 7.796 5.526 8.282 5.526 8.798 5.541 9.623 6.204 10.286 7.029 10.272 7.545 10.272 8.032 9.992 8.297 9.535L10.463 5.88C10.714 5.482 10.257 5.025 9.844 5.276ZM7 4.996C7.35 4.996 7.634 4.712 7.634 4.362 7.634 4.012 7.35 3.728 7 3.728 6.65 3.728 6.366 4.012 6.366 4.362 6.366 4.712 6.65 4.996 7 4.996ZM4.341 6.095C4.588 5.848 4.588 5.447 4.341 5.199 4.093 4.952 3.692 4.952 3.445 5.199 3.197 5.447 3.197 5.848 3.445 6.095 3.692 6.343 4.093 6.343 4.341 6.095ZM2.608 9.387C2.958 9.387 3.242 9.104 3.242 8.754 3.242 8.404 2.958 8.12 2.608 8.12 2.258 8.12 1.975 8.404 1.975 8.754 1.975 9.104 2.258 9.387 2.608 9.387ZM11.406 9.402C11.756 9.402 12.04 9.118 12.04 8.768 12.04 8.418 11.756 8.135 11.406 8.135 11.056 8.135 10.773 8.418 10.773 8.768 10.773 9.118 11.056 9.402 11.406 9.402Z"/></svg>